<?xml version="1.0" standalone="no"?>
<!DOCTYPE svg PUBLIC "-//W3C//DTD SVG 20010904//EN"
 "http://www.w3.org/TR/2001/REC-SVG-20010904/DTD/svg10.dtd">
<svg version="1.0" xmlns="http://www.w3.org/2000/svg"
 width="225.000000pt" height="225.000000pt" viewBox="0 0 225.000000 225.000000"
 preserveAspectRatio="xMidYMid meet">

<g transform="translate(0.000000,225.000000) scale(0.100000,-0.100000)"
fill="#000000" stroke="none">
<path d="M615 1942 c-60 -20 -85 -60 -85 -134 l0 -58 -43 0 c-55 0 -126 -36
-154 -78 -12 -18 -24 -56 -28 -85 -3 -29 -5 -304 -3 -612 3 -542 4 -561 23
-595 12 -19 36 -43 55 -55 33 -19 53 -20 456 -23 372 -2 424 -1 437 13 9 9 14
22 11 30 -5 12 -74 15 -435 17 l-429 3 -27 28 -28 27 -3 438 c-2 240 0 452 3
471 4 18 17 44 30 57 l24 24 330 0 c181 0 337 -3 346 -6 9 -4 38 -51 66 -105
30 -61 59 -105 76 -116 24 -16 61 -19 310 -23 l283 -5 27 -28 28 -27 3 -319
c3 -267 1 -325 -12 -355 -20 -48 -63 -66 -160 -66 -80 0 -101 -14 -69 -46 14
-13 32 -16 103 -12 100 5 143 24 175 78 19 34 20 53 23 595 2 308 0 583 -3
612 -8 67 -39 112 -95 141 -39 19 -60 22 -167 22 l-123 0 0 58 c0 75 -25 117
-77 131 -41 12 -833 14 -868 3z m-85 -362 l0 -100 -45 0 c-25 0 -61 -7 -80
-14 l-35 -15 0 85 c0 81 1 87 29 115 25 24 37 29 80 29 l51 0 0 -100z m1321
71 l29 -29 0 -212 c0 -198 -1 -212 -17 -204 -10 4 -35 9 -55 12 l-38 4 0 163
0 163 -30 31 c-28 27 -38 30 -103 33 l-72 3 -3 33 -3 32 131 0 132 0 29 -29z"/>
<path d="M693 1060 c-96 -48 -145 -128 -145 -235 0 -107 49 -187 145 -235 134
-67 288 -16 353 115 113 232 -124 470 -353 355z m203 -49 c104 -47 148 -178
94 -281 -27 -52 -31 -52 -61 -4 -27 42 -28 47 -14 67 8 12 15 40 15 63 0 105
-132 156 -208 81 -32 -32 -42 -106 -18 -141 15 -24 15 -27 -13 -71 -31 -49
-34 -48 -66 15 -36 71 -15 180 47 237 56 53 151 67 224 34z m-40 -126 c33 -51
-16 -108 -71 -83 -54 25 -35 108 25 108 20 0 35 -8 46 -25z m-6 -170 c32 -17
49 -60 32 -77 -6 -6 -39 -11 -72 -11 -33 0 -66 5 -72 11 -17 17 0 60 30 76 35
19 46 19 82 1z"/>
<path d="M1250 945 c-7 -8 -10 -22 -6 -30 8 -23 464 -23 472 0 4 8 1 22 -6 30
-18 22 -442 22 -460 0z"/>
<path d="M1244 735 c-4 -8 -1 -22 6 -30 18 -22 442 -22 460 0 7 8 10 22 6 30
-8 23 -464 23 -472 0z"/>
<path d="M1390 336 c0 -28 16 -36 70 -36 54 0 70 8 70 36 0 23 -3 24 -70 24
-67 0 -70 -1 -70 -24z"/>
</g>
</svg>
